<svg id="Layer_1" data-name="Layer 1" xmlns="http://www.w3.org/2000/svg" viewBox="0 0 1063.73 483.53"><defs><style>.cls-1{fill:#fff;}.cls-2{fill:#231f20;}</style></defs><path class="cls-1" d="M468.55,327.32,824,310.09c1.92-.1,4-.14,5.53,1,1.83,1.43,2.1,4,2.23,6.36q11.21,211.68,41.78,421.73l-122.19,6c-35.75,1.74-71.52,3.48-107.11,7.23C600.36,757,556.86,764.69,513,769.28c-3.2.34-6.72.57-9.31-1.33s-3.44-5.51-4-8.75q-39.07-213-59.24-428.84a86.92,86.92,0,0,1,37.88-.53" transform="translate(-428.56 -297.83)"/><path class="cls-2" d="M468.55,339.15,669,329.42l95.69-4.64c16.13-.78,34.06-3.93,50.13-2.43l5-4.86q.36,6.76.74,13.51.75,13.51,1.59,27,11.92,192.91,39.88,384.34l11.4-15c-64.53,3.14-129.22,5.23-193.65,10-30.57,2.28-60.94,6-91.29,10.19-19.34,2.67-38.66,5.51-58,7.85-22.45,2.72-19.47.89-23.48-21.61q-35.83-200.52-54.81-403.5l-8.68,11.4a83.77,83.77,0,0,1,31.6-.53c14.88,2.44,21.29-20.35,6.28-22.8a121,121,0,0,0-44.16.53c-4.67.9-9.14,6.58-8.69,11.4q10.32,109.38,25.31,218.22,7.41,53.63,16,107.07,4.29,26.73,8.89,53.4c3.06,17.79,4.11,38.75,10.09,55.72,8.93,25.35,38.53,14.84,59.14,12.12,35-4.6,69.93-10.15,105.1-13.55,73.16-7.07,147-8.72,220.39-12.3,8.4-.41,12.53-7.18,11.4-15q-15.58-107.8-26.18-216.22-5-51.63-8.87-103.35-2-27-3.7-54c-1-15.61.64-33.39-3.08-48.54-5.61-22.83-33-15-51-14.17l-104.8,5.08L468.55,315.5c-15.15.73-15.24,24.39,0,23.65Z" transform="translate(-428.56 -297.83)"/><path class="cls-2" d="M671.61,562.72c-41.83,3-85.61-16.2-103.53-55.87-17.54-38.83-5.15-83.66,31.23-106.17,33.89-21,77.87-21.63,113.24-3.82,37.5,18.89,63,57.54,56.08,100.44-8,50.05-57.1,72.07-103.52,67.89-15.15-1.36-15.06,22.3,0,23.65,51.31,4.61,105.06-19.38,122.56-70.44,16.8-49-4.74-101.8-45.61-131.29C700.83,357.35,644.86,352.43,599,374c-46.27,21.72-70.81,70.71-59.7,120.74,13.3,59.93,73.16,95.88,132.32,91.64,15.1-1.08,15.21-24.73,0-23.64Z" transform="translate(-428.56 -297.83)"/><path class="cls-2" d="M614.4,444.28l-.45.44,8.36-3.46-.59-.07,6,1.62-.58-.42,4.24,4.25.69,1.54-1.19,9.11.38-.57-7.06,5.43.84-.25h-6.28l.84.27-5.22-3-.73-.87-1.62-6v.95c-.08,15.22,23.57,15.24,23.65,0,.07-13.23-18.08-20.61-25.22-7.9-7.22,12.87,10.25,25.84,20.69,15.65,10.91-10.65-5.81-27.36-16.72-16.72Z" transform="translate(-428.56 -297.83)"/><path class="cls-2" d="M702.66,456.5c1-1.08,1.05-1.13.3-.15L697,458h1.06l-6-1.61.57.38-4.25-4.24.27.63-1.61-6,.21-1.82,3-5.21-.42.35,11.5-3-.58-.08c-6.32-.89-12.7,1.54-14.55,8.26-1.52,5.53,1.9,13.64,8.26,14.54,5.42.76,10,0,13.43-4.51a13.3,13.3,0,0,0,1.14-14.46c-5.07-9.09-16.59-8.36-23.15-1.42-10.45,11.06,6.25,27.81,16.72,16.72Z" transform="translate(-428.56 -297.83)"/><path class="cls-2" d="M618.94,483.28C615,493.84,616.35,504.91,621,515c3.19,6.87,13.72,7.54,18.57,2.39a57.71,57.71,0,0,0,14.66-27.26l-22.81-6.28c-1.73,11.81.79,29.56,14,34.17,8.19,2.86,14.4-1.29,19-7.83,3.55-5.07,7-10.21,10.49-15.31L653.22,492a40.46,40.46,0,0,0,13.35,23c6.3,5.39,13.74,4,18.57-2.39a89.45,89.45,0,0,0,10.68-18.15l-21.61-2.82c3,7.63,7.15,14.39,13.53,19.68,6.17,5.12,13.94,4.27,18.57-2.39a66.27,66.27,0,0,0,6.45-11.62l-21.61-2.82a40.36,40.36,0,0,0,14.49,19.07c5.23,3.9,13.1.7,16.18-4.24,1.8-2.88,3.72-5.65,5.79-8.35,3.9-5.06.78-13.24-4.24-16.17-6.1-3.57-12.26-.84-16.17,4.24a100.2,100.2,0,0,0-5.8,8.35l16.18-4.25a16.85,16.85,0,0,1-3.63-4.94c-1.69-4.46-4.85-7.87-9.83-8.47-4.22-.5-9.92,1.34-11.78,5.65A65.83,65.83,0,0,1,685.89,497l18.57-2.39c-3.11-2.58-6-5.56-7.45-9.25-1.76-4.45-4.78-7.87-9.83-8.47-4.24-.5-9.88,1.35-11.78,5.65a89.37,89.37,0,0,1-10.68,18.14l18.57-2.39A19.89,19.89,0,0,1,676,485.72c-.84-4.49-5.58-8-9.83-8.47-4.92-.58-9,1.6-11.78,5.65l-6,8.75-3,4.37-1,1.46q-2.4,3.27.92-.6l6-1.61-1.36.07,6,1.61a11.65,11.65,0,0,1-1.69-6.87c.92-6.31-1.57-12.7-8.26-14.54-5.91-1.62-13.18,2-14.55,8.26a34,34,0,0,1-8.57,16.82L641.42,503c-2.08-4.5-1.34-9,.32-13.44,2.24-6-2.48-13-8.25-14.54-6.62-1.82-12.31,2.25-14.55,8.25Z" transform="translate(-428.56 -297.83)"/><path class="cls-2" d="M874.62,360.77l61-3.11c9.81-.5,20.15-.13,29.84-1.73,7-1.16,12.36-7.07,11.52-14.33-.69-6-6.54-11.88-13-11.05-5,.63-10.27,3.19-11.4,8.68l-.1.48c-1.3,6.25,1.82,12.77,8.25,14.54,5.86,1.61,13.25-2,14.55-8.25l.1-.49L964,354.19l.59-.07-6-1.62.61.29-5.43-7.07.18.6,1.19-9.11-.54.75,7.06-5.43q2.69.15-.72.19l-1.87.1-5.63.29-11.27.57-22.52,1.15-45,2.3c-6.38.32-11.82,5.2-11.82,11.82,0,6.15,5.41,12.15,11.82,11.82Z" transform="translate(-428.56 -297.83)"/><path class="cls-2" d="M916.66,352.38l7.13,67.77c.67,6.35,5,11.82,11.83,11.82,5.87,0,12.49-5.43,11.82-11.82l-7.14-67.77c-.66-6.35-4.95-11.82-11.82-11.82-5.87,0-12.5,5.43-11.82,11.82Z" transform="translate(-428.56 -297.83)"/><path class="cls-2" d="M1002.88,377.13l.74-.51-9.11,1.19-1.2-.47-4.25-4.24q1.5,2.28.07-.92l.37,3.69.55,5.54,1.28,12.92,2.57,25.84c.63,6.36,5,11.83,11.82,11.83,5.91,0,12.46-5.43,11.83-11.83q-1.89-18.92-3.76-37.84c-.63-6.29-.24-14-3.34-19.67-3.73-6.8-12.56-10.7-19.51-6-5.26,3.6-7.63,10.39-4.24,16.18,3,5.22,10.88,7.86,16.18,4.24Z" transform="translate(-428.56 -297.83)"/><path class="cls-2" d="M1055.84,432.23c8.7-7.68,12.79-18.79,15.63-29.74,3.29-12.69,6.39-25.43,9.58-38.15l-21.61,2.83q15.06,24.15,28.06,49.5c4.94,9.61,18.56,6.21,21.62-2.83,6.06-17.93,12.36-36.58,26.05-50.26l-19.76-5.22a301.59,301.59,0,0,0,27,72.93c7.06,13.48,27.48,1.54,20.42-11.94a276.71,276.71,0,0,1-24.64-67.28c-2-8.79-13.68-11.29-19.76-5.22-16.66,16.65-24.74,38.85-32.14,60.7l21.61-2.82q-13-25.34-28.07-49.5c-5.22-8.37-19.06-7.33-21.61,2.83q-4.37,17.4-8.72,34.81c-2.07,8.21-3.81,16.82-10.4,22.64-4.79,4.23-4.32,12.4,0,16.72,4.75,4.76,11.92,4.24,16.72,0Z" transform="translate(-428.56 -297.83)"/><path class="cls-2" d="M957.48,599.61c-7.9-18.9-3.45-39.38.56-58.68,1.72-8.26,3.57-16.77,7-24.52,3-6.68,8-15.34,15.16-18.17,4.87-1.9,7.26,2.68,9.29,7.22,4,9,5.93,19.41,8.33,28.93q4.1,16.25,7.36,32.69c1,4.89,2.31,10.92,2.86,15.16a18.51,18.51,0,0,1,.13,6,1.34,1.34,0,0,1,.73-.95c-12.8,8.15-.95,28.62,11.93,20.42,8.32-5.29,11.65-14.35,11-24-.74-11-3.58-22.07-5.88-32.8q-3.51-16.38-7.86-32.57c-2.51-9.36-4.82-19.2-9.67-27.68-4.39-7.67-11.39-14.25-20.27-16-11.21-2.25-21.8,2.9-29.86,10.41-14,13-19.5,32.34-23.22,50.44-4.7,22.89-9.74,48-.39,70.38,2.46,5.88,7.83,10.1,14.55,8.25,5.56-1.52,10.73-8.61,8.26-14.54Z" transform="translate(-428.56 -297.83)"/><path class="cls-2" d="M1011.54,548.08a456.08,456.08,0,0,1-62.84,1.1c-6.38-.33-11.82,5.67-11.82,11.82,0,6.68,5.42,11.49,11.82,11.82a456.07,456.07,0,0,0,62.84-1.09c6.36-.55,11.82-5,11.82-11.82,0-6-5.42-12.38-11.82-11.83Z" transform="translate(-428.56 -297.83)"/><path class="cls-2" d="M1113.8,545.75c-6.36-17.72-21.87-35.42-42.43-25.75-17.62,8.29-25.15,32.58-24.87,50.62.14,9.35,2,19.24,7.83,26.76,6.33,8.09,16.31,11.28,26.29,9.25,21.27-4.33,27.39-26.15,28.75-44.91,1.81-25,1.33-50.17.92-75.24-.25-15.31-22.75-15.11-23.65,0A239.13,239.13,0,0,0,1104.36,592c2.45,5.89,7.84,10.1,14.54,8.26,5.57-1.53,10.73-8.61,8.26-14.54a223.07,223.07,0,0,1-16.87-99.22h-23.65c.34,20.55.67,41.11-.17,61.65-.34,8.24-.26,16.86-2.4,24.87-1.59,5.93-4.53,9.78-9.56,10.75-.22,0-1.69-.79-.51,0-1.68-1.11-.73-.15-1.8-2-1.25-2.13-1.64-5-1.89-7.61a46.17,46.17,0,0,1,3.24-21.83c1.63-4,5.66-12.27,10.38-11.44-1.9-.33.77.88.2.29a34.19,34.19,0,0,1,3,3A32.81,32.81,0,0,1,1091,552c2.16,6,8,10.05,14.54,8.26,5.81-1.59,10.43-8.5,8.26-14.54Z" transform="translate(-428.56 -297.83)"/><path class="cls-2" d="M1139.51,534.38a368,368,0,0,0,13.6,66.28,12.06,12.06,0,0,0,14.55,8.25c6.78-1.86,9.18-8.2,8.26-14.54-2.06-14.1-2.12-29.58,1.33-43.47,1.4-5.65,3.58-11.3,7.45-15.23,3.64-3.7,7.45-5.3,12.08-5.11,6.39.26,11.82-5.62,11.82-11.83a12,12,0,0,0-11.82-11.82c-20.17-.82-35.11,15.2-41,33.1-6.33,19.18-5.52,41-2.65,60.65l22.81-6.29a333.35,333.35,0,0,1-12.76-60c-.73-6.35-4.92-11.83-11.82-11.83-5.83,0-12.56,5.44-11.83,11.83Z" transform="translate(-428.56 -297.83)"/><path class="cls-2" d="M1217,542.39q3.78,28.17,5.06,56.57c.28,6.38,5.22,11.82,11.82,11.82,6.18,0,12.11-5.41,11.82-11.82q-1.28-28.4-5.05-56.57c-.85-6.33-4.83-11.82-11.82-11.82-5.73,0-12.68,5.45-11.83,11.82Z" transform="translate(-428.56 -297.83)"/><path class="cls-2" d="M1217.25,491v1.61c0,15.22,23.65,15.24,23.65,0V491c0-15.21-23.65-15.24-23.65,0Z" transform="translate(-428.56 -297.83)"/><path class="cls-2" d="M1282,574.79c18.77,5.25,39.3-.34,53.42-13.62,7.49-7,13.27-16.71,14.39-27a24.45,24.45,0,0,0-17.6-26.34c-21.68-6.37-42.23,13.93-51.08,31.62-9.21,18.42-15.08,44.08.72,60.67,18.44,19.35,46.21,12.41,67.78,3.57,5.9-2.42,10.09-7.86,8.25-14.55-1.53-5.59-8.6-10.69-14.54-8.26-7.31,3-14.72,6.07-22.51,7.62a36.52,36.52,0,0,1-9.51.58c-.15,0-2.27-.29-.79,0-.65-.11-1.3-.26-1.94-.41a44.05,44.05,0,0,1-4.23-1.24c-4.22-1.79-7.21-4.23-8.32-8.87-1.46-6.12.45-13.14,2.33-19.1,3.47-11,10.54-22.95,21.43-27.93a13.5,13.5,0,0,1,3.61-1.14c.38-.05,2.49.29,1.28,0,1.2.33,1.24.15,1.67.57-.67-.64.68.79.67.74-.07-.45-.58-.19-.59-.41.19,4.27-4,9.42-6.37,11.91a32.69,32.69,0,0,1-14.54,8.74,25.11,25.11,0,0,1-8.29,1.34c-1.2,0-4.1-.08-4.21-.1,1,.12-1-.17-1-.16-1.27-.25-2.51-.57-3.76-.92-14.68-4.1-21,18.71-6.29,22.8Z" transform="translate(-428.56 -297.83)"/><path class="cls-2" d="M1381.18,524.86a295.19,295.19,0,0,0,11.09,72.76,11.82,11.82,0,0,0,13,8.47c6.13-.92,9.72-5.59,10.26-11.61,1.81-20.52,13.39-43.73,31.64-55.58a16,16,0,0,1,5.92-2.7c1.75-.29-.44-.37.79,0,.67.44.72.4.14-.13a14.89,14.89,0,0,1,1.35,1.28c2.42,2.56,4.09,7.28,5.61,11.93a157.21,157.21,0,0,1,7.69,41.54c.3,6.38,5.21,11.83,11.82,11.83,6.17,0,12.13-5.42,11.82-11.83-1.21-25.52-9.66-93-50.64-75.66-14.69,6.2-26.89,20.29-35.07,33.61a104.35,104.35,0,0,0-14.72,45.72l23.22-3.14a268.72,268.72,0,0,1-10.24-66.48c-.41-15.19-24.06-15.25-23.65,0Z" transform="translate(-428.56 -297.83)"/><path class="cls-2" d="M644.49,562.84c-34.07,11.4-49.23,44.5-57.35,77-3.72,14.92-9.37,32.92-1.1,47.34,8.78,15.32,28.72,18.4,44.82,18.74,19.14.4,38.67-2,57.71-3.73,19.79-1.82,39.57-4.22,59.08-8,7.8-1.51,15.6-3.15,19.8-10.69,4.39-7.88,2.77-18.88.45-27.12-4.83-17.2-14.8-33.79-23.31-49.39-9.17-16.82-19.36-31.49-37.78-38.8-16.88-6.7-35.72-6-53.51-4.85-15.1,1-15.22,24.67,0,23.65,23.11-1.55,49.28-3,63.37,18.89C724,617.22,730,629.55,736,641.61c3,6,6.16,12,8.29,18.37a37.83,37.83,0,0,1,2.09,9.18c.19,2.44-1.61,6,1.56,2.36,2.76-3.18.25-1.52-1.93-1-29.65,6.34-60.09,8.53-90.28,10.67-13.56,1-28.23,2.89-41.48-1.12-12.42-3.76-8.7-15.18-6.35-25.26,6-25.84,14.4-59.58,42.9-69.12,14.36-4.81,8.2-27.66-6.28-22.8Z" transform="translate(-428.56 -297.83)"/><path class="cls-2" d="M552.46,391c-4.21.29-5.57-.92-6.35-5l-5.43,13.36c6.18-2.84,14.7.62,17.15,7l8.26-14.54c-5.82,1.69,1.55-9.34,2.4-10.14a33.24,33.24,0,0,1,10.85-6.22c8.91-3.21,20.95-3.41,24,7.63l14.54-14.55c-3.16-.55-3.51-3.31-2-6,2.82-5.17,12.19-5.21,17.08-4.78,13.25,1.16,24.59,8.05,33.45,17.64l8.37-20.18Q675.1,368,684,365a68.87,68.87,0,0,1,7.87,0,57.73,57.73,0,0,1,16.11,3.39,57.14,57.14,0,0,1,14.61,7.82,48.3,48.3,0,0,1,6.14,5.47q2,6.13,3.32.77l10.21,17.79c3.1-6.51,8.58-11.75,16.34-10.69a14.3,14.3,0,0,1,8.53,4.45c4.1,4.28,1.22,6.27,8,6.24-15.21.08-15.24,23.73,0,23.64,27.89-.15,20.45-36.52,6.11-49-19.16-16.65-48.77-9-59.41,13.4-4.08,8.58,1,16.81,10.21,17.79,18.21,1.92,27.11-18.8,19.2-33.33s-25.49-24-40.74-28.38c-13.93-4-36-6.85-47.66,4-11.2,10.41-4.6,32,11.92,30.39,10.11-1,15.69-12.25,8.36-20.19C665,339,631.41,324.83,606.26,339.73c-19.68,11.65-20.54,47,5.31,51.53,8.63,1.52,17.08-5.23,14.54-14.55-8.92-32.66-49.07-32.22-71.58-14.1-10.23,8.24-17.51,21.26-13.24,34.61,4.21,13.2,17.73,21.2,31.08,17.31,5.69-1.66,10.59-8.49,8.26-14.54-8.27-21.47-31-30.72-51.88-21.1-5,2.29-6.34,8.54-5.44,13.35a27.59,27.59,0,0,0,29.15,22.4c15.1-1.06,15.22-24.71,0-23.65Z" transform="translate(-428.56 -297.83)"/></svg>